<svg width="33" height="32" viewBox="0 0 33 32" fill="none" xmlns="http://www.w3.org/2000/svg">
<path d="M24.3334 13.9043H18.1429V7.71387H13.9048V13.9043H7.71436V18.1424H13.9048V24.3329H18.1429V18.1424H24.3334V13.9043Z" fill="#00B894"/>
<path d="M32 4.23808V0H27.7619H19.9524C16.6191 0 13.9048 2.71428 13.9048 6.0476H18.1429C18.1429 5.0476 18.9524 4.23808 19.9524 4.23808H32Z" fill="#00B894"/>
<path d="M27.8093 5.85742V12.0479C27.8093 13.0479 26.9998 13.8574 25.9998 13.8574V18.0955C29.3331 18.0955 32.0474 15.3812 32.0474 12.0479V5.85742H27.8093Z" fill="#00B894"/>
<path d="M13.9047 25.9531C13.9047 26.9531 13.0952 27.7626 12.0952 27.7626H0V32.0007H12.0476C15.3809 32.0007 18.0952 29.2864 18.0952 25.9531H13.9047Z" fill="#00B894"/>
<path d="M4.23808 26.1433V19.9529C4.23808 18.9529 5.0476 18.1434 6.0476 18.1434V13.9053C2.71428 13.9053 0 16.6196 0 19.9529V26.1433H4.23808Z" fill="#00B894"/>
</svg>
